millimetreA italic 01.ufo
<glyph name="quotedbl" format="1">
  <advance width="200"/>
  <unicode hex="0022"/>
  <outline>
    <contour>
      <point x="0" y="630" type="line"/>
      <point x="20" y="500" type="line"/>
      <point x="80" y="500" type="line"/>
      <point x="80" y="700" type="line"/>
      <point x="0" y="700" type="line"/>
    </contour>
    <contour>
      <point x="120" y="500" type="line"/>
      <point x="180" y="500" type="line"/>
      <point x="200" y="630" type="line"/>
      <point x="200" y="700" type="line"/>
      <point x="120" y="700" type="line"/>
    </contour>
  </outline>
</glyph>
<glyph name="two" format="1">
  <advance width="600"/>
  <unicode hex="0032"/>
  <outline>
    <contour>
      <point x="150" y="100" type="line"/>
      <point x="150" y="180" type="line"/>
      <point x="150" y="360"/>
      <point x="550" y="250"/>
      <point x="550" y="510" type="curve" smooth="yes"/>
      <point x="550" y="630"/>
      <point x="490" y="700"/>
      <point x="300" y="700" type="curve" smooth="yes"/>
      <point x="270" y="700" type="line" smooth="yes"/>
      <point x="130" y="700"/>
      <point x="50" y="630"/>
      <point x="50" y="480" type="curve"/>
      <point x="50" y="450" type="line"/>
      <point x="150" y="450" type="line"/>
      <point x="150" y="460" type="line" smooth="yes"/>
      <point x="150" y="580"/>
      <point x="190" y="600"/>
      <point x="300" y="600" type="curve"/>
      <point x="430" y="600"/>
      <point x="450" y="570"/>
      <point x="450" y="520" type="curve" smooth="yes"/>
      <point x="450" y="340"/>
      <point x="50" y="450"/>
      <point x="50" y="190" type="curve"/>
      <point x="50" y="0" type="line"/>
      <point x="550" y="0" type="line"/>
      <point x="550" y="250" type="line"/>
      <point x="450" y="250" type="line"/>
      <point x="450" y="100" type="line"/>
    </contour>
  </outline>
</glyph>
<glyph name="seven" format="1">
  <advance width="600"/>
  <unicode hex="0037"/>
  <outline>
    <contour>
      <point x="50" y="600" type="line"/>
      <point x="510" y="600" type="line"/>
      <point x="550" y="630" type="line"/>
      <point x="550" y="700" type="line"/>
      <point x="50" y="700" type="line"/>
    </contour>
    <contour>
      <point x="100" y="200" type="line"/>
      <point x="500" y="200" type="line"/>
      <point x="500" y="300" type="line"/>
      <point x="100" y="300" type="line"/>
    </contour>
    <contour>
      <point x="320" y="210" type="line"/>
      <point x="550" y="630" type="line"/>
      <point x="480" y="700" type="line"/>
      <point x="210" y="210" type="line"/>
    </contour>
    <contour>
      <point x="350" y="0" type="line"/>
      <point x="350" y="250" type="line"/>
      <point x="250" y="250" type="line"/>
      <point x="250" y="0" type="line"/>
    </contour>
  </outline>
</glyph>
<glyph name="at" format="1">
  <advance width="600"/>
  <unicode hex="0040"/>
  <outline>
    <contour>
      <point x="350" y="340" type="curve"/>
      <point x="350" y="360" type="line"/>
      <point x="350" y="400"/>
      <point x="370" y="410"/>
      <point x="400" y="410" type="curve" smooth="yes"/>
      <point x="430" y="410"/>
      <point x="450" y="400"/>
      <point x="450" y="360" type="curve"/>
      <point x="450" y="470" type="line"/>
      <point x="440" y="490"/>
      <point x="420" y="510"/>
      <point x="370" y="510" type="curve" smooth="yes"/>
      <point x="300" y="510"/>
      <point x="250" y="460"/>
      <point x="250" y="390" type="curve"/>
      <point x="250" y="310" type="line"/>
      <point x="250" y="240"/>
      <point x="300" y="190"/>
      <point x="370" y="190" type="curve" smooth="yes"/>
      <point x="420" y="190"/>
      <point x="440" y="210"/>
      <point x="450" y="230" type="curve"/>
      <point x="450" y="340" type="line"/>
      <point x="450" y="300"/>
      <point x="430" y="290"/>
      <point x="400" y="290" type="curve" smooth="yes"/>
      <point x="370" y="290"/>
      <point x="350" y="300"/>
    </contour>
    <contour>
      <point x="300" y="100" type="line"/>
      <point x="210" y="100"/>
      <point x="150" y="150"/>
      <point x="150" y="250" type="curve" smooth="yes"/>
      <point x="150" y="450" type="line" smooth="yes"/>
      <point x="150" y="550"/>
      <point x="210" y="600"/>
      <point x="300" y="600" type="curve"/>
      <point x="300" y="600"/>
      <point x="400" y="600"/>
      <point x="400" y="600" type="curve"/>
      <point x="430" y="600"/>
      <point x="450" y="590"/>
      <point x="450" y="550" type="curve"/>
      <point x="450" y="230" type="line"/>
      <point x="460" y="200" type="line"/>
      <point x="550" y="200" type="line"/>
      <point x="550" y="550" type="line"/>
      <point x="550" y="640"/>
      <point x="480" y="700"/>
      <point x="400" y="700" type="curve"/>
      <point x="400" y="700"/>
      <point x="300" y="700"/>
      <point x="300" y="700" type="curve"/>
      <point x="160" y="700"/>
      <point x="50" y="600"/>
      <point x="50" y="450" type="curve"/>
      <point x="50" y="250" type="line"/>
      <point x="50" y="100"/>
      <point x="160" y="0"/>
      <point x="300" y="0" type="curve"/>
      <point x="300" y="0"/>
      <point x="550" y="0"/>
      <point x="550" y="0" type="curve"/>
      <point x="550" y="0"/>
      <point x="550" y="100"/>
      <point x="550" y="100" type="curve"/>
    </contour>
  </outline>
</glyph>
<glyph name="A" format="1">
  <advance width="600"/>
  <unicode hex="0041"/>
  <outline>
    <contour>
      <point x="555" y="200" type="line"/>
      <point x="580" y="300" type="line"/>
      <point x="180" y="300" type="line"/>
      <point x="155" y="200" type="line"/>
    </contour>
    <contour>
      <point x="440" y="700" type="line"/>
      <point x="250" y="600"/>
      <point x="160" y="410"/>
      <point x="105" y="200" type="curve" smooth="yes"/>
      <point x="50" y="0" type="line"/>
      <point x="150" y="0" type="line"/>
      <point x="205" y="200" type="line" smooth="yes"/>
      <point x="265" y="420"/>
      <point x="335" y="540"/>
      <point x="490" y="630" type="curve"/>
    </contour>
    <contour>
      <point x="540" y="700" type="curve"/>
      <point x="440" y="700" type="line"/>
      <point x="450" y="630" type="line"/>
      <point x="555" y="540"/>
      <point x="565" y="420"/>
      <point x="505" y="200" type="curve" smooth="yes"/>
      <point x="450" y="0" type="line"/>
      <point x="550" y="0" type="line"/>
      <point x="605" y="200" type="line" smooth="yes"/>
      <point x="660" y="410"/>
      <point x="670" y="600"/>
    </contour>
    <contour>
      <point x="300" y="650" type="move" name="top"/>
    </contour>
  </outline>
</glyph>
<glyph name="B" format="1">
  <advance width="600"/>
  <unicode hex="0042"/>
  <outline>
    <contour>
      <point x="590" y="700" type="curve"/>
      <point x="300" y="700" type="line"/>
      <point x="270" y="600" type="line"/>
      <point x="560" y="600" type="line"/>
      <point x="590" y="600"/>
      <point x="610" y="590"/>
      <point x="600" y="550" type="curve"/>
      <point x="700" y="550" type="line"/>
      <point x="725" y="640"/>
      <point x="670" y="700"/>
    </contour>
    <contour>
      <point x="535" y="500" type="curve"/>
      <point x="265" y="500" type="line"/>
      <point x="210" y="400" type="line"/>
      <point x="510" y="400" type="line"/>
      <point x="590" y="400"/>
      <point x="675" y="460"/>
      <point x="700" y="550" type="curve"/>
      <point x="600" y="550" type="line" smooth="yes"/>
      <point x="590" y="510"/>
      <point x="565" y="500"/>
    </contour>
    <contour>
      <point x="150" y="0" type="line"/>
      <point x="340" y="700" type="line"/>
      <point x="240" y="700" type="line"/>
      <point x="50" y="0" type="line"/>
    </contour>
    <contour>
      <point x="465" y="500" type="curve" smooth="yes"/>
      <point x="245" y="500" type="line"/>
      <point x="220" y="400" type="line"/>
      <point x="410" y="400" type="line"/>
      <point x="520" y="400"/>
      <point x="555" y="380"/>
      <point x="520" y="260" type="curve" smooth="yes"/>
      <point x="520" y="250" type="line"/>
      <point x="620" y="250" type="line"/>
      <point x="625" y="280" type="line"/>
      <point x="665" y="430"/>
      <point x="605" y="500"/>
    </contour>
    <contour>
      <point x="330" y="0" type="line" smooth="yes"/>
      <point x="470" y="0"/>
      <point x="570" y="70"/>
      <point x="610" y="220" type="curve"/>
      <point x="620" y="250" type="line"/>
      <point x="520" y="250" type="line"/>
      <point x="515" y="240" type="line" smooth="yes"/>
      <point x="485" y="120"/>
      <point x="440" y="100"/>
      <point x="330" y="100" type="curve"/>
      <point x="140" y="100" type="line"/>
      <point x="110" y="0" type="line"/>
    </contour>
  </outline>
</glyph>
<glyph name="G" format="1">
  <advance width="600"/>
  <unicode hex="0047"/>
  <outline>
    <contour>
      <point x="330" y="700" type="curve" smooth="yes"/>
      <point x="300" y="700" type="line"/>
      <point x="300" y="600" type="line"/>
      <point x="410" y="600"/>
      <point x="450" y="580"/>
      <point x="450" y="460" type="curve" smooth="yes"/>
      <point x="450" y="450" type="line"/>
      <point x="550" y="450" type="line"/>
      <point x="550" y="480" type="line"/>
      <point x="550" y="630"/>
      <point x="470" y="700"/>
    </contour>
    <contour>
      <point x="270" y="700" type="line" smooth="yes"/>
      <point x="130" y="700"/>
      <point x="50" y="630"/>
      <point x="50" y="480" type="curve"/>
      <point x="50" y="350" type="line"/>
      <point x="150" y="350" type="line"/>
      <point x="150" y="460" type="line" smooth="yes"/>
      <point x="150" y="580"/>
      <point x="190" y="600"/>
      <point x="300" y="600" type="curve"/>
      <point x="300" y="700" type="line"/>
    </contour>
    <contour>
      <point x="550" y="300" type="line"/>
      <point x="450" y="300" type="line"/>
      <point x="450" y="80" type="line"/>
      <point x="460" y="0" type="line"/>
      <point x="550" y="0" type="line"/>
    </contour>
    <contour>
      <point x="300" y="200" type="line"/>
      <point x="600" y="200" type="line"/>
      <point x="600" y="300" type="line"/>
      <point x="300" y="300" type="line"/>
    </contour>
    <contour>
      <point x="450" y="80" type="curve"/>
      <point x="450" y="240" type="line"/>
      <point x="450" y="140"/>
      <point x="430" y="90"/>
      <point x="300" y="90" type="curve" smooth="yes"/>
      <point x="190" y="90"/>
      <point x="150" y="120"/>
      <point x="150" y="240" type="curve"/>
      <point x="150" y="350" type="line"/>
      <point x="50" y="350" type="line"/>
      <point x="50" y="210" type="line"/>
      <point x="50" y="60"/>
      <point x="120" y="-10"/>
      <point x="270" y="-10" type="curve" smooth="yes"/>
      <point x="390" y="-10"/>
      <point x="440" y="30"/>
    </contour>
  </outline>
</glyph>
<glyph name="K" format="1">
  <advance width="600"/>
  <unicode hex="004B"/>
  <outline>
    <contour>
      <point x="50" y="0" type="line"/>
      <point x="150" y="0" type="line"/>
      <point x="150" y="700" type="line"/>
      <point x="50" y="700" type="line"/>
    </contour>
    <contour>
      <point x="130" y="400" type="line"/>
      <point x="250" y="400" type="line"/>
      <point x="250" y="500" type="line"/>
      <point x="130" y="500" type="line"/>
    </contour>
    <contour>
      <point x="250" y="430" type="line"/>
      <point x="520" y="470"/>
      <point x="550" y="580"/>
      <point x="550" y="650" type="curve" smooth="yes"/>
      <point x="550" y="700" type="line"/>
      <point x="450" y="700" type="line"/>
      <point x="450" y="650" type="line" smooth="yes"/>
      <point x="450" y="580"/>
      <point x="390" y="500"/>
      <point x="160" y="500" type="curve"/>
    </contour>
    <contour>
      <point x="250" y="470" type="curve"/>
      <point x="160" y="400" type="line"/>
      <point x="390" y="400"/>
      <point x="450" y="260"/>
      <point x="450" y="100" type="curve" smooth="yes"/>
      <point x="450" y="0" type="line"/>
      <point x="550" y="0" type="line"/>
      <point x="550" y="100" type="line" smooth="yes"/>
      <point x="550" y="260"/>
      <point x="520" y="430"/>
    </contour>
  </outline>
</glyph>
<glyph name="N" format="1">
  <advance width="600"/>
  <unicode hex="004E"/>
  <outline>
    <contour>
      <point x="50" y="0" type="line"/>
      <point x="150" y="0" type="line"/>
      <point x="150" y="700" type="line"/>
      <point x="50" y="700" type="line"/>
    </contour>
    <contour>
      <point x="450" y="0" type="line"/>
      <point x="550" y="0" type="line"/>
      <point x="550" y="700" type="line"/>
      <point x="450" y="700" type="line"/>
    </contour>
    <contour>
      <point x="450" y="0" type="line"/>
      <point x="530" y="70" type="line"/>
      <point x="150" y="700" type="line"/>
      <point x="70" y="630" type="line"/>
    </contour>
    <contour>
      <point x="300" y="650" type="move" name="top"/>
    </contour>
  </outline>
</glyph>
<glyph name="Q" format="1">
  <advance width="600"/>
  <unicode hex="0051"/>
  <outline>
    <contour>
      <point x="330" y="700" type="curve" smooth="yes"/>
      <point x="300" y="700" type="line"/>
      <point x="300" y="600" type="line"/>
      <point x="430" y="600"/>
      <point x="450" y="580"/>
      <point x="450" y="460" type="curve" smooth="yes"/>
      <point x="450" y="350" type="line"/>
      <point x="550" y="350" type="line"/>
      <point x="550" y="480" type="line"/>
      <point x="550" y="630"/>
      <point x="470" y="700"/>
    </contour>
    <contour>
      <point x="270" y="700" type="line" smooth="yes"/>
      <point x="130" y="700"/>
      <point x="50" y="630"/>
      <point x="50" y="480" type="curve"/>
      <point x="50" y="350" type="line"/>
      <point x="150" y="350" type="line"/>
      <point x="150" y="460" type="line" smooth="yes"/>
      <point x="150" y="580"/>
      <point x="170" y="600"/>
      <point x="300" y="600" type="curve"/>
      <point x="300" y="700" type="line"/>
    </contour>
    <contour>
      <point x="330" y="0" type="line" smooth="yes"/>
      <point x="470" y="0"/>
      <point x="550" y="70"/>
      <point x="550" y="220" type="curve"/>
      <point x="550" y="350" type="line"/>
      <point x="450" y="350" type="line"/>
      <point x="450" y="240" type="line" smooth="yes"/>
      <point x="450" y="120"/>
      <point x="430" y="100"/>
      <point x="300" y="100" type="curve"/>
      <point x="300" y="0" type="line"/>
    </contour>
    <contour>
      <point x="270" y="0" type="curve" smooth="yes"/>
      <point x="300" y="0" type="line"/>
      <point x="300" y="100" type="line"/>
      <point x="170" y="100"/>
      <point x="150" y="120"/>
      <point x="150" y="240" type="curve" smooth="yes"/>
      <point x="150" y="350" type="line"/>
      <point x="50" y="350" type="line"/>
      <point x="50" y="220" type="line"/>
      <point x="50" y="70"/>
      <point x="130" y="0"/>
    </contour>
    <contour>
      <point x="250" y="-50" type="line"/>
      <point x="350" y="-50" type="line"/>
      <point x="350" y="200" type="line"/>
      <point x="250" y="200" type="line"/>
    </contour>
  </outline>
</glyph>
<glyph name="S" format="1">
  <advance width="600"/>
  <unicode hex="0053"/>
  <outline>
    <contour>
      <point x="300" y="100" type="curve"/>
      <point x="190" y="100"/>
      <point x="150" y="120"/>
      <point x="150" y="240" type="curve" smooth="yes"/>
      <point x="150" y="250" type="line"/>
      <point x="50" y="250" type="line"/>
      <point x="50" y="220" type="line"/>
      <point x="50" y="70"/>
      <point x="130" y="0"/>
      <point x="270" y="0" type="curve" smooth="yes"/>
      <point x="300" y="0" type="line"/>
      <point x="480" y="0"/>
      <point x="550" y="70"/>
      <point x="550" y="190" type="curve"/>
      <point x="550" y="450"/>
      <point x="150" y="340"/>
      <point x="150" y="520" type="curve" smooth="yes"/>
      <point x="150" y="570"/>
      <point x="180" y="600"/>
      <point x="300" y="600" type="curve"/>
      <point x="410" y="600"/>
      <point x="450" y="580"/>
      <point x="450" y="460" type="curve" smooth="yes"/>
      <point x="450" y="450" type="line"/>
      <point x="550" y="450" type="line"/>
      <point x="550" y="480" type="line"/>
      <point x="550" y="630"/>
      <point x="470" y="700"/>
      <point x="330" y="700" type="curve" smooth="yes"/>
      <point x="300" y="700" type="line"/>
      <point x="120" y="700"/>
      <point x="50" y="630"/>
      <point x="50" y="510" type="curve" smooth="yes"/>
      <point x="50" y="250"/>
      <point x="450" y="360"/>
      <point x="450" y="180" type="curve" smooth="yes"/>
      <point x="450" y="130"/>
      <point x="420" y="100"/>
    </contour>
  </outline>
</glyph>
<glyph name="V" format="1">
  <advance width="600"/>
  <unicode hex="0056"/>
  <outline>
    <contour>
      <point x="250" y="0" type="curve"/>
      <point x="320" y="70" type="line"/>
      <point x="190" y="160"/>
      <point x="150" y="280"/>
      <point x="150" y="500" type="curve" smooth="yes"/>
      <point x="150" y="700" type="line"/>
      <point x="50" y="700" type="line"/>
      <point x="50" y="500" type="line" smooth="yes"/>
      <point x="50" y="290"/>
      <point x="90" y="100"/>
    </contour>
    <contour>
      <point x="350" y="0" type="line"/>
      <point x="510" y="100"/>
      <point x="550" y="290"/>
      <point x="550" y="500" type="curve" smooth="yes"/>
      <point x="550" y="700" type="line"/>
      <point x="450" y="700" type="line"/>
      <point x="450" y="500" type="line" smooth="yes"/>
      <point x="450" y="280"/>
      <point x="410" y="160"/>
      <point x="280" y="70" type="curve"/>
      <point x="250" y="0" type="line"/>
    </contour>
  </outline>
</glyph>
<glyph name="X" format="1">
  <advance width="600"/>
  <unicode hex="0058"/>
  <outline>
    <contour>
      <point x="280" y="320" type="curve"/>
      <point x="370" y="370" type="line"/>
      <point x="210" y="450"/>
      <point x="150" y="510"/>
      <point x="150" y="600" type="curve" smooth="yes"/>
      <point x="150" y="700" type="line"/>
      <point x="50" y="700" type="line"/>
      <point x="50" y="600" type="line" smooth="yes"/>
      <point x="50" y="500"/>
      <point x="110" y="390"/>
    </contour>
    <contour>
      <point x="320" y="320" type="line"/>
      <point x="490" y="390"/>
      <point x="550" y="500"/>
      <point x="550" y="600" type="curve" smooth="yes"/>
      <point x="550" y="700" type="line"/>
      <point x="450" y="700" type="line"/>
      <point x="450" y="600" type="line" smooth="yes"/>
      <point x="450" y="510"/>
      <point x="390" y="450"/>
      <point x="230" y="370" type="curve"/>
      <point x="310" y="340" type="line"/>
    </contour>
    <contour>
      <point x="280" y="390" type="line"/>
      <point x="110" y="320"/>
      <point x="50" y="200"/>
      <point x="50" y="100" type="curve" smooth="yes"/>
      <point x="50" y="0" type="line"/>
      <point x="150" y="0" type="line"/>
      <point x="150" y="100" type="line" smooth="yes"/>
      <point x="150" y="190"/>
      <point x="210" y="260"/>
      <point x="370" y="340" type="curve"/>
    </contour>
    <contour>
      <point x="320" y="390" type="curve"/>
      <point x="220" y="350" type="line"/>
      <point x="230" y="340" type="line"/>
      <point x="390" y="260"/>
      <point x="450" y="190"/>
      <point x="450" y="100" type="curve" smooth="yes"/>
      <point x="450" y="0" type="line"/>
      <point x="550" y="0" type="line"/>
      <point x="550" y="100" type="line" smooth="yes"/>
      <point x="550" y="200"/>
      <point x="490" y="320"/>
    </contour>
  </outline>
</glyph>
<glyph name="grave" format="1">
  <advance width="200"/>
  <unicode hex="0060"/>
  <outline>
    <contour>
      <point x="160" y="550" type="line"/>
      <point x="120" y="700" type="line"/>
      <point x="20" y="700" type="line"/>
      <point x="20" y="650" type="line"/>
      <point x="90" y="550" type="line"/>
    </contour>
    <contour>
      <point x="122" y="500" type="move" name="_top"/>
    </contour>
  </outline>
</glyph>
<glyph name="a" format="1">
  <advance width="600"/>
  <unicode hex="0061"/>
  <outline>
    <contour>
      <point x="140" y="350" type="curve"/>
      <point x="135" y="330" type="line"/>
      <point x="235" y="330" type="line"/>
      <point x="240" y="350" type="line"/>
      <point x="255" y="400"/>
      <point x="280" y="410"/>
      <point x="410" y="410" type="curve" smooth="yes"/>
      <point x="540" y="410"/>
      <point x="555" y="390"/>
      <point x="535" y="330" type="curve" smooth="yes"/>
      <point x="505" y="220" type="line"/>
      <point x="615" y="250" type="line"/>
      <point x="635" y="330" type="line"/>
      <point x="665" y="440"/>
      <point x="615" y="510"/>
      <point x="435" y="510" type="curve" smooth="yes"/>
      <point x="245" y="510"/>
      <point x="170" y="450"/>
    </contour>
    <contour>
      <point x="615" y="250" type="line"/>
      <point x="515" y="250" type="line"/>
      <point x="465" y="70" type="line"/>
      <point x="460" y="0" type="line"/>
      <point x="550" y="0" type="line"/>
    </contour>
    <contour>
      <point x="75" y="140" type="curve"/>
      <point x="45" y="30"/>
      <point x="105" y="-10"/>
      <point x="255" y="-10" type="curve" smooth="yes"/>
      <point x="355" y="-10"/>
      <point x="425" y="20"/>
      <point x="465" y="70" type="curve"/>
      <point x="495" y="180" type="line"/>
      <point x="475" y="110"/>
      <point x="440" y="90"/>
      <point x="280" y="90" type="curve"/>
      <point x="180" y="90"/>
      <point x="165" y="100"/>
      <point x="175" y="140" type="curve"/>
      <point x="190" y="190"/>
      <point x="240" y="200"/>
      <point x="505" y="210" type="curve"/>
      <point x="530" y="300" type="line"/>
      <point x="205" y="290"/>
      <point x="110" y="260"/>
    </contour>
    <contour>
      <point x="300" y="500" type="move" name="top"/>
    </contour>
  </outline>
</glyph>
<glyph name="f" format="1">
  <advance width="400"/>
  <unicode hex="0066"/>
  <outline>
    <contour>
      <point x="0" y="200" type="line"/>
      <point x="350" y="200" type="line"/>
      <point x="350" y="300" type="line"/>
      <point x="0" y="300" type="line"/>
    </contour>
    <contour>
      <point x="400" y="700" type="line"/>
      <point x="200" y="700" type="line"/>
      <point x="110" y="700"/>
      <point x="50" y="640"/>
      <point x="50" y="550" type="curve"/>
      <point x="50" y="0" type="line"/>
      <point x="150" y="0" type="line"/>
      <point x="150" y="550" type="line" smooth="yes"/>
      <point x="150" y="590"/>
      <point x="170" y="600"/>
      <point x="200" y="600" type="curve"/>
      <point x="400" y="600" type="line"/>
    </contour>
  </outline>
</glyph>
<glyph name="o" format="1">
  <advance width="600"/>
  <unicode hex="006F"/>
  <outline>
    <contour>
      <point x="300" y="410" type="curve"/>
      <point x="430" y="410"/>
      <point x="450" y="370"/>
      <point x="450" y="290" type="curve" smooth="yes"/>
      <point x="450" y="250" type="line"/>
      <point x="550" y="250" type="line"/>
      <point x="550" y="290" type="line"/>
      <point x="550" y="420"/>
      <point x="490" y="510"/>
      <point x="300" y="510" type="curve"/>
      <point x="110" y="510"/>
      <point x="50" y="420"/>
      <point x="50" y="290" type="curve"/>
      <point x="50" y="250" type="line"/>
      <point x="150" y="250" type="line"/>
      <point x="150" y="290" type="line" smooth="yes"/>
      <point x="150" y="370"/>
      <point x="170" y="410"/>
    </contour>
    <contour>
      <point x="300" y="90" type="curve"/>
      <point x="170" y="90"/>
      <point x="150" y="130"/>
      <point x="150" y="210" type="curve" smooth="yes"/>
      <point x="150" y="250" type="line"/>
      <point x="50" y="250" type="line"/>
      <point x="50" y="210" type="line"/>
      <point x="50" y="80"/>
      <point x="110" y="-10"/>
      <point x="300" y="-10" type="curve"/>
      <point x="490" y="-10"/>
      <point x="550" y="80"/>
      <point x="550" y="210" type="curve"/>
      <point x="550" y="250" type="line"/>
      <point x="450" y="250" type="line"/>
      <point x="450" y="210" type="line" smooth="yes"/>
      <point x="450" y="130"/>
      <point x="430" y="90"/>
    </contour>
    <contour>
      <point x="300.0" y="500.0" type="move" name="top"/>
    </contour>
  </outline>
</glyph>
<glyph name="t" format="1">
  <advance width="400"/>
  <unicode hex="0074"/>
  <outline>
    <contour>
      <point x="350" y="100" type="line"/>
      <point x="200" y="100" type="line"/>
      <point x="170" y="100"/>
      <point x="150" y="110"/>
      <point x="150" y="150" type="curve" smooth="yes"/>
      <point x="150" y="400" type="line"/>
      <point x="350" y="400" type="line"/>
      <point x="350" y="500" type="line"/>
      <point x="150" y="500" type="line"/>
      <point x="150" y="600" type="line"/>
      <point x="50" y="600" type="line"/>
      <point x="50" y="570" type="line"/>
      <point x="50" y="510"/>
      <point x="40" y="500"/>
      <point x="0" y="500" type="curve"/>
      <point x="0" y="400" type="line"/>
      <point x="50" y="400" type="line"/>
      <point x="50" y="150" type="line"/>
      <point x="50" y="50"/>
      <point x="100" y="0"/>
      <point x="200" y="0" type="curve"/>
      <point x="350" y="0" type="line"/>
    </contour>
  </outline>
</glyph>
<glyph name="cent" format="1">
  <advance width="600"/>
  <unicode hex="00A2"/>
  <outline>
    <contour>
      <point x="550" y="370" type="line"/>
      <point x="550" y="460"/>
      <point x="490" y="510"/>
      <point x="300" y="510" type="curve" smooth="yes"/>
      <point x="120" y="510"/>
      <point x="50" y="440"/>
      <point x="50" y="310" type="curve"/>
      <point x="50" y="250" type="line"/>
      <point x="150" y="250" type="line"/>
      <point x="150" y="310" type="line" smooth="yes"/>
      <point x="150" y="390"/>
      <point x="170" y="410"/>
      <point x="300" y="410" type="curve" smooth="yes"/>
      <point x="430" y="410"/>
      <point x="450" y="400"/>
      <point x="450" y="370" type="curve"/>
      <point x="450" y="350" type="line"/>
      <point x="550" y="350" type="line"/>
    </contour>
    <contour>
      <point x="550" y="130" type="curve"/>
      <point x="550" y="150" type="line"/>
      <point x="450" y="150" type="line"/>
      <point x="450" y="130" type="line"/>
      <point x="450" y="100"/>
      <point x="430" y="90"/>
      <point x="300" y="90" type="curve" smooth="yes"/>
      <point x="170" y="90"/>
      <point x="150" y="110"/>
      <point x="150" y="190" type="curve" smooth="yes"/>
      <point x="150" y="250" type="line"/>
      <point x="50" y="250" type="line"/>
      <point x="50" y="190" type="line"/>
      <point x="50" y="60"/>
      <point x="120" y="-10"/>
      <point x="300" y="-10" type="curve" smooth="yes"/>
      <point x="490" y="-10"/>
      <point x="550" y="40"/>
    </contour>
    <contour>
      <point x="250" y="-50" type="line"/>
      <point x="350" y="-50" type="line"/>
      <point x="350" y="550" type="line"/>
      <point x="250" y="550" type="line"/>
    </contour>
  </outline>
</glyph>
<glyph name="yen" format="1">
  <advance width="600"/>
  <unicode hex="00A5"/>
  <outline>
    <contour>
      <point x="250" y="0" type="line"/>
      <point x="350" y="0" type="line"/>
      <point x="350" y="350" type="line"/>
      <point x="250" y="350" type="line"/>
    </contour>
    <contour>
      <point x="250" y="280" type="curve"/>
      <point x="340" y="330" type="line"/>
      <point x="190" y="430"/>
      <point x="150" y="530"/>
      <point x="150" y="650" type="curve" smooth="yes"/>
      <point x="150" y="700" type="line"/>
      <point x="50" y="700" type="line"/>
      <point x="50" y="650" type="line" smooth="yes"/>
      <point x="50" y="540"/>
      <point x="90" y="380"/>
    </contour>
    <contour>
      <point x="350" y="280" type="line"/>
      <point x="510" y="380"/>
      <point x="550" y="540"/>
      <point x="550" y="650" type="curve" smooth="yes"/>
      <point x="550" y="700" type="line"/>
      <point x="450" y="700" type="line"/>
      <point x="450" y="650" type="line" smooth="yes"/>
      <point x="450" y="530"/>
      <point x="410" y="430"/>
      <point x="260" y="330" type="curve"/>
      <point x="250" y="280" type="line"/>
    </contour>
    <contour>
      <point x="50" y="400" type="line"/>
      <point x="150" y="400" type="line"/>
      <point x="150" y="500" type="line"/>
      <point x="50" y="500" type="line"/>
    </contour>
    <contour>
      <point x="50" y="200" type="line"/>
      <point x="550" y="200" type="line"/>
      <point x="550" y="300" type="line"/>
      <point x="430" y="300" type="line"/>
      <point x="340" y="280" type="line"/>
      <point x="260" y="280" type="line"/>
      <point x="170" y="300" type="line"/>
      <point x="50" y="300" type="line"/>
    </contour>
    <contour>
      <point x="450" y="400" type="line"/>
      <point x="550" y="400" type="line"/>
      <point x="550" y="500" type="line"/>
      <point x="450" y="500" type="line"/>
    </contour>
    <contour>
      <point x="300.0" y="650.0" type="move" name="top"/>
    </contour>
  </outline>
</glyph>
<glyph name="ordfeminine" format="1">
  <advance width="400"/>
  <unicode hex="00AA"/>
  <outline>
    <contour>
      <point x="260" y="560" type="curve" smooth="yes"/>
      <point x="260" y="540" type="line" smooth="yes"/>
      <point x="260" y="500"/>
      <point x="240" y="480"/>
      <point x="200" y="480" type="curve"/>
      <point x="150" y="480"/>
      <point x="130" y="500"/>
      <point x="130" y="550" type="curve" smooth="yes"/>
      <point x="130" y="600"/>
      <point x="150" y="620"/>
      <point x="200" y="620" type="curve"/>
      <point x="240" y="620"/>
      <point x="260" y="600"/>
    </contour>
    <contour>
      <point x="260" y="400" type="line"/>
      <point x="350" y="400" type="line"/>
      <point x="350" y="700" type="line"/>
      <point x="260" y="700" type="line"/>
      <point x="260" y="660" type="line"/>
      <point x="250" y="660" type="line"/>
      <point x="240" y="690"/>
      <point x="220" y="710"/>
      <point x="180" y="710" type="curve"/>
      <point x="100" y="710"/>
      <point x="40" y="660"/>
      <point x="40" y="550" type="curve"/>
      <point x="40" y="440"/>
      <point x="100" y="390"/>
      <point x="180" y="390" type="curve"/>
      <point x="220" y="390"/>
      <point x="240" y="410"/>
      <point x="250" y="440" type="curve"/>
      <point x="250" y="440"/>
      <point x="260" y="440"/>
      <point x="260" y="440" type="curve"/>
    </contour>
  </outline>
</glyph>
<glyph name="guillemotleft" format="1">
  <advance width="400"/>
  <unicode hex="00AB"/>
  <outline>
    <contour>
      <point x="20" y="250" type="line"/>
      <point x="110" y="250" type="line"/>
      <point x="210" y="400" type="line"/>
      <point x="120" y="400" type="line"/>
    </contour>
    <contour>
      <point x="20" y="250" type="line"/>
      <point x="120" y="100" type="line"/>
      <point x="210" y="100" type="line"/>
      <point x="110" y="250" type="line"/>
    </contour>
    <contour>
      <point x="170" y="250" type="line"/>
      <point x="260" y="250" type="line"/>
      <point x="360" y="400" type="line"/>
      <point x="270" y="400" type="line"/>
    </contour>
    <contour>
      <point x="170" y="250" type="line"/>
      <point x="270" y="100" type="line"/>
      <point x="360" y="100" type="line"/>
      <point x="260" y="250" type="line"/>
    </contour>
  </outline>
</glyph>
<glyph name="registered" format="1">
  <advance width="800"/>
  <unicode hex="00AE"/>
  <outline>
    <contour>
      <point x="430" y="0" type="line" smooth="yes"/>
      <point x="640" y="0"/>
      <point x="750" y="110"/>
      <point x="750" y="270" type="curve"/>
      <point x="750" y="350" type="line"/>
      <point x="650" y="350" type="line"/>
      <point x="650" y="290" type="line" smooth="yes"/>
      <point x="650" y="160"/>
      <point x="600" y="100"/>
      <point x="400" y="100" type="curve"/>
      <point x="400" y="0" type="line"/>
    </contour>
    <contour>
      <point x="370" y="700" type="line" smooth="yes"/>
      <point x="160" y="700"/>
      <point x="50" y="590"/>
      <point x="50" y="430" type="curve"/>
      <point x="50" y="350" type="line"/>
      <point x="150" y="350" type="line"/>
      <point x="150" y="410" type="line" smooth="yes"/>
      <point x="150" y="540"/>
      <point x="200" y="600"/>
      <point x="400" y="600" type="curve"/>
      <point x="400" y="700" type="line"/>
    </contour>
    <contour>
      <point x="370" y="0" type="curve" smooth="yes"/>
      <point x="400" y="0" type="line"/>
      <point x="400" y="100" type="line"/>
      <point x="200" y="100"/>
      <point x="150" y="160"/>
      <point x="150" y="290" type="curve" smooth="yes"/>
      <point x="150" y="350" type="line"/>
      <point x="50" y="350" type="line"/>
      <point x="50" y="270" type="line"/>
      <point x="50" y="110"/>
      <point x="160" y="0"/>
    </contour>
    <contour>
      <point x="400" y="500" type="curve"/>
      <point x="310" y="500" type="line"/>
      <point x="310" y="410" type="line"/>
      <point x="400" y="410" type="line"/>
      <point x="430" y="410"/>
      <point x="450" y="410"/>
      <point x="450" y="370" type="curve"/>
      <point x="550" y="370" type="line"/>
      <point x="550" y="460"/>
      <point x="480" y="500"/>
    </contour>
    <contour>
      <point x="400" y="330" type="curve"/>
      <point x="340" y="330" type="line"/>
      <point x="330" y="240" type="line"/>
      <point x="400" y="240" type="line"/>
      <point x="480" y="240"/>
      <point x="550" y="280"/>
      <point x="550" y="370" type="curve"/>
      <point x="450" y="370" type="line" smooth="yes"/>
      <point x="450" y="330"/>
      <point x="430" y="330"/>
    </contour>
    <contour>
      <point x="350" y="200" type="line"/>
      <point x="350" y="500" type="line"/>
      <point x="250" y="500" type="line"/>
      <point x="250" y="200" type="line"/>
    </contour>
    <contour>
      <point x="340" y="320" type="curve"/>
      <point x="390" y="240" type="line"/>
      <point x="440" y="240"/>
      <point x="450" y="230"/>
      <point x="450" y="200" type="curve"/>
      <point x="550" y="200" type="line"/>
      <point x="550" y="260"/>
      <point x="470" y="320"/>
    </contour>
    <contour>
      <point x="430" y="700" type="curve" smooth="yes"/>
      <point x="400" y="700" type="line"/>
      <point x="400" y="600" type="line"/>
      <point x="600" y="600"/>
      <point x="650" y="540"/>
      <point x="650" y="410" type="curve" smooth="yes"/>
      <point x="650" y="350" type="line"/>
      <point x="750" y="350" type="line"/>
      <point x="750" y="430" type="line"/>
      <point x="750" y="590"/>
      <point x="640" y="700"/>
    </contour>
    <contour>
      <point x="300.0" y="650.0" type="move" name="top"/>
    </contour>
  </outline>
</glyph>
<glyph name="degree" format="1">
  <advance width="400"/>
  <unicode hex="00B0"/>
  <outline>
    <contour>
      <point x="260" y="560" type="curve" smooth="yes"/>
      <point x="260" y="540" type="line" smooth="yes"/>
      <point x="260" y="500"/>
      <point x="240" y="480"/>
      <point x="200" y="480" type="curve"/>
      <point x="160" y="480"/>
      <point x="140" y="500"/>
      <point x="140" y="540" type="curve" smooth="yes"/>
      <point x="140" y="560" type="line" smooth="yes"/>
      <point x="140" y="600"/>
      <point x="160" y="620"/>
      <point x="200" y="620" type="curve"/>
      <point x="240" y="620"/>
      <point x="260" y="600"/>
    </contour>
    <contour>
      <point x="350" y="540" type="curve"/>
      <point x="350" y="560" type="line"/>
      <point x="350" y="650"/>
      <point x="280" y="710"/>
      <point x="200" y="710" type="curve"/>
      <point x="120" y="710"/>
      <point x="50" y="650"/>
      <point x="50" y="560" type="curve"/>
      <point x="50" y="540" type="line"/>
      <point x="50" y="450"/>
      <point x="120" y="390"/>
      <point x="200" y="390" type="curve"/>
      <point x="280" y="390"/>
      <point x="350" y="450"/>
    </contour>
  </outline>
</glyph>
<glyph name="acute" format="1">
  <advance width="200"/>
  <unicode hex="00B4"/>
  <outline>
    <contour>
      <point x="40" y="550" type="line"/>
      <point x="110" y="550" type="line"/>
      <point x="180" y="650" type="line"/>
      <point x="180" y="700" type="line"/>
      <point x="80" y="700" type="line"/>
    </contour>
    <contour>
      <point x="68" y="500" type="move" name="_top"/>
    </contour>
  </outline>
</glyph>
<glyph name="cedilla" format="1">
  <advance width="250"/>
  <unicode hex="00B8"/>
  <outline>
    <contour>
      <point x="100" y="0" type="line"/>
      <point x="90" y="-80" type="line"/>
      <point x="120" y="-80"/>
      <point x="140" y="-80"/>
      <point x="140" y="-100" type="curve" smooth="yes"/>
      <point x="140" y="-120"/>
      <point x="130" y="-130"/>
      <point x="100" y="-130" type="curve"/>
      <point x="60" y="-130" type="line"/>
      <point x="50" y="-200" type="line"/>
      <point x="100" y="-200" type="line"/>
      <point x="170" y="-200"/>
      <point x="210" y="-170"/>
      <point x="210" y="-100" type="curve" smooth="yes"/>
      <point x="210" y="-50"/>
      <point x="190" y="-30"/>
      <point x="150" y="-30" type="curve"/>
      <point x="150" y="0" type="line"/>
    </contour>
    <contour>
      <point x="123" y="0" type="move" name="_bottom"/>
    </contour>
  </outline>
</glyph>
<glyph name="Eth" format="1">
  <advance width="600"/>
  <unicode hex="00D0"/>
  <outline>
    <contour>
      <point x="250" y="200" type="line"/>
      <point x="250" y="300" type="line"/>
      <point x="0" y="300" type="line"/>
      <point x="0" y="200" type="line"/>
    </contour>
    <component base="D"/>
  </outline>
</glyph>
<glyph name="thorn" format="1">
  <advance width="600"/>
  <unicode hex="00FE"/>
  <outline>
    <contour>
      <point x="50" y="700" type="line"/>
      <point x="50" y="-200" type="line"/>
      <point x="150" y="-200" type="line"/>
      <point x="150" y="420" type="line"/>
      <point x="150" y="700" type="line"/>
    </contour>
    <contour>
      <point x="150" y="80" type="line"/>
      <point x="160" y="30"/>
      <point x="210" y="-10"/>
      <point x="330" y="-10" type="curve" smooth="yes"/>
      <point x="480" y="-10"/>
      <point x="550" y="60"/>
      <point x="550" y="210" type="curve"/>
      <point x="550" y="250" type="line"/>
      <point x="450" y="250" type="line"/>
      <point x="450" y="240" type="line"/>
      <point x="450" y="120"/>
      <point x="410" y="90"/>
      <point x="300" y="90" type="curve" smooth="yes"/>
      <point x="170" y="90"/>
      <point x="150" y="140"/>
      <point x="150" y="240" type="curve"/>
    </contour>
    <contour>
      <point x="150" y="420" type="curve"/>
      <point x="150" y="260" type="line"/>
      <point x="150" y="360"/>
      <point x="170" y="410"/>
      <point x="300" y="410" type="curve" smooth="yes"/>
      <point x="410" y="410"/>
      <point x="450" y="380"/>
      <point x="450" y="260" type="curve"/>
      <point x="450" y="250" type="line"/>
      <point x="550" y="250" type="line"/>
      <point x="550" y="290" type="line"/>
      <point x="550" y="440"/>
      <point x="480" y="510"/>
      <point x="330" y="510" type="curve" smooth="yes"/>
      <point x="210" y="510"/>
      <point x="160" y="470"/>
    </contour>
  </outline>
</glyph>
<glyph name="dotlessi" format="1">
  <advance width="200"/>
  <unicode hex="0131"/>
  <outline>
    <contour>
      <point x="50" y="0" type="line"/>
      <point x="150" y="0" type="line"/>
      <point x="150" y="500" type="line"/>
      <point x="50" y="500" type="line"/>
    </contour>
    <contour>
      <point x="100" y="500" type="move" name="top"/>
    </contour>
  </outline>
</glyph>
<glyph name="OE" format="1">
  <advance width="600"/>
  <unicode hex="0152"/>
  <outline>
    <contour>
      <point x="250" y="560" type="curve" smooth="yes"/>
      <point x="250" y="140" type="line" smooth="yes"/>
      <point x="250" y="100"/>
      <point x="230" y="90"/>
      <point x="200" y="90" type="curve"/>
      <point x="170" y="90"/>
      <point x="150" y="100"/>
      <point x="150" y="140" type="curve" smooth="yes"/>
      <point x="150" y="560" type="line" smooth="yes"/>
      <point x="150" y="600"/>
      <point x="170" y="610"/>
      <point x="200" y="610" type="curve"/>
      <point x="230" y="610"/>
      <point x="250" y="600"/>
    </contour>
    <contour>
      <point x="350" y="140" type="curve" smooth="yes"/>
      <point x="350" y="560" type="line"/>
      <point x="350" y="650"/>
      <point x="280" y="710"/>
      <point x="200" y="710" type="curve"/>
      <point x="120" y="710"/>
      <point x="50" y="650"/>
      <point x="50" y="560" type="curve"/>
      <point x="50" y="140" type="line"/>
      <point x="50" y="50"/>
      <point x="120" y="-10"/>
      <point x="200" y="-10" type="curve"/>
      <point x="280" y="-10"/>
      <point x="350" y="50"/>
    </contour>
    <contour>
      <point x="250" y="0" type="line"/>
      <point x="350" y="0" type="line"/>
      <point x="350" y="700" type="line"/>
      <point x="250" y="700" type="line"/>
    </contour>
    <contour>
      <point x="300" y="0" type="line"/>
      <point x="550" y="0" type="line"/>
      <point x="550" y="100" type="line"/>
      <point x="300" y="100" type="line"/>
    </contour>
    <contour>
      <point x="300" y="600" type="line"/>
      <point x="550" y="600" type="line"/>
      <point x="550" y="700" type="line"/>
      <point x="300" y="700" type="line"/>
    </contour>
    <contour>
      <point x="300" y="400" type="line"/>
      <point x="500" y="400" type="line"/>
      <point x="500" y="500" type="line"/>
      <point x="300" y="500" type="line"/>
    </contour>
  </outline>
</glyph>
<glyph name="quoteleft" format="1">
  <advance width="200"/>
  <unicode hex="2018"/>
  <outline>
    <contour>
      <point x="150" y="600" type="line"/>
      <point x="130" y="600" type="line"/>
      <point x="130" y="700" type="line"/>
      <point x="80" y="700" type="line"/>
      <point x="50" y="550" type="line"/>
      <point x="50" y="500" type="line"/>
      <point x="150" y="500" type="line"/>
    </contour>
  </outline>
</glyph>
